<svg width="83" height="19" viewBox="0 0 83 19" fill="none" xmlns="http://www.w3.org/2000/svg">
<path fill-rule="evenodd" clip-rule="evenodd" d="M13.759 0.609901H9.63765L3.56796 7.69184V0.609901H0.479004V15.4591H3.56796V11.5755L6.0408 8.9047L10.0956 15.4591H14.1004L8.14729 6.66589L13.759 0.609901ZM24.8622 12.6057V7.35132C24.8622 4.83837 23.0304 3.69612 19.4835 3.69612C16.3946 3.69612 14.3339 5.06682 14.3339 7.46346H17.3104C17.3104 6.66597 17.6518 5.75217 19.6001 5.75217C21.3153 5.75217 21.8898 6.43752 21.8898 7.23501C21.8898 7.80406 21.6608 8.37726 19.3711 8.37726C15.5953 8.37726 14.1049 9.86426 14.1049 12.1446C14.1049 14.0844 15.2497 15.7998 17.9973 15.7998C20.7449 15.7998 21.8898 13.7438 21.8898 13.7438V13.8601C21.8898 15.2308 22.2311 15.4592 22.2311 15.4592H25.4367V15.3471C25.4367 15.3471 24.8622 14.8902 24.8622 12.6057ZM21.8856 10.5496C21.8856 12.7178 20.2828 13.6316 18.909 13.6316C17.6518 13.6316 16.9649 13.0626 16.9649 11.9162C16.9649 11.0024 17.6518 10.317 19.138 10.317C21.0746 10.317 21.8036 9.61869 21.8796 9.54595C21.8825 9.5431 21.8856 9.54028 21.8856 9.54028V10.5496ZM29.3242 5.98062C29.3242 5.98062 30.469 3.69612 33.2166 3.69612C35.9642 3.69612 38.3663 5.64833 38.3663 9.75627C38.3663 13.8642 35.9642 15.8081 33.2166 15.8081C30.469 15.8081 29.3242 13.7521 29.3242 13.7521V18.8901H26.3476V4.04087H29.3242V5.98062ZM29.3242 9.75211C29.3242 12.6057 30.8145 13.7479 32.3007 13.7479C33.7911 13.7479 35.2773 12.6057 35.2773 9.75211C35.2773 6.89857 33.7911 5.75632 32.3007 5.75632C30.8104 5.75632 29.3242 6.89857 29.3242 9.75211ZM45.007 8.37726C42.7173 8.37726 42.376 7.69191 42.376 7.12287C42.376 6.55382 42.9505 5.75217 44.5491 5.75217C46.2642 5.75217 46.8387 6.54966 46.8387 7.46346H49.8153C49.8153 6.20907 49.245 3.69612 44.6656 3.69612C41.1187 3.69612 39.3994 5.29527 39.3994 7.23501C39.3994 9.29106 40.7732 10.4333 44.3201 10.4333C46.7222 10.4333 47.1801 11.1187 47.1801 11.9162C47.1801 12.7137 46.7222 13.7438 44.778 13.7438C43.2918 13.7438 42.2594 13.0584 42.2594 11.6877H39.1705C39.1705 13.7438 40.5442 15.7998 44.778 15.7998C48.5539 15.7998 50.2732 13.9722 50.2732 11.804C50.2732 9.17476 48.3291 8.37726 45.007 8.37726ZM52.908 0.609904H55.8845V4.03665H58.4031V6.32115H55.8845V12.1445C55.8845 13.1705 56.23 13.3989 57.0293 13.3989C57.4873 13.3989 58.4031 13.2826 58.4031 13.2826V15.455C58.4031 15.455 56.9128 15.6834 55.8845 15.6834C53.4783 15.6834 52.908 14.8859 52.908 12.1445V6.32115H50.6183V4.03665H52.908V0.609904ZM70.0765 12.6057V7.35132C70.0765 4.83837 68.2448 3.69612 64.6979 3.69612C61.6089 3.69612 59.5482 5.06682 59.5482 7.46346H62.5248C62.5248 6.66597 62.8662 5.75217 64.8145 5.75217C66.5296 5.75217 67.1041 6.43752 67.1041 7.23501C67.1041 7.80406 66.8752 8.37726 64.5855 8.37726C60.8096 8.37726 59.3193 9.86426 59.3193 12.1446C59.3193 14.0844 60.4641 15.7998 63.2117 15.7998C65.9593 15.7998 67.1041 13.7438 67.1041 13.7438V13.8601C67.1041 15.2308 67.4455 15.4592 67.4455 15.4592H70.651V15.3471C70.651 15.3471 70.0807 14.8902 70.0807 12.6057H70.0765ZM67.1 10.5496C67.1 12.7178 65.4972 13.6316 64.1234 13.6316C62.8662 13.6316 62.1793 13.0626 62.1793 11.9162C62.1793 11.0024 62.8662 10.317 64.3524 10.317C66.2889 10.317 67.018 9.61868 67.0939 9.54595C67.0969 9.54313 67.1 9.54028 67.1 9.54028V10.5496ZM74.5437 6.2091C74.5437 6.2091 76.1465 3.69615 78.6651 3.69615C81.4127 3.69615 82.5534 5.4033 82.5534 7.91624V15.4551H79.5768V8.71789C79.5768 6.77815 78.7775 6.0928 77.4037 6.0928C76.0299 6.0928 74.5437 7.1229 74.5437 9.74799V15.4592H71.5671V4.03675H74.5437V6.2091Z" fill="white"/>
</svg>
